<?xml version="1.0" standalone="no"?>
<!DOCTYPE svg PUBLIC "-//W3C//DTD SVG 20010904//EN"
 "http://www.w3.org/TR/2001/REC-SVG-20010904/DTD/svg10.dtd">
<svg version="1.0" xmlns="http://www.w3.org/2000/svg"
 width="800.000000pt" height="800.000000pt" viewBox="0 0 800.000000 800.000000"
 preserveAspectRatio="xMidYMid meet">
<metadata>
Created by potrace 1.14, written by Peter Selinger 2001-2017
</metadata>
<g transform="translate(0.000000,800.000000) scale(0.100000,-0.100000)"
fill="#000000" stroke="none">
<path d="M605 7985 c-281 -62 -488 -252 -578 -533 l-22 -67 -2 -3360 c-2
-3289 -2 -3362 17 -3440 11 -44 40 -123 66 -175 40 -81 61 -109 138 -185 106
-105 202 -160 336 -197 l85 -22 3335 0 c1834 0 3357 3 3384 6 277 39 516 252
603 536 l27 87 1 3345 c1 2774 -1 3356 -12 3410 -63 303 -273 516 -588 597
-16 4 -1537 9 -3380 10 -2747 1 -3361 -1 -3410 -12z m6740 -409 c104 -32 187
-114 223 -221 20 -60 21 -77 19 -3370 l-2 -3310 -26 -56 c-37 -79 -90 -133
-167 -171 l-67 -33 -3330 0 -3330 0 -56 28 c-72 36 -130 94 -166 165 l-28 57
0 3335 0 3335 26 56 c28 60 92 130 143 156 83 43 -52 42 3412 42 2854 1 3307
-1 3349 -13z"/>
<path d="M3322 6857 c-7 -8 -11 -279 -12 -822 -2 -1202 -4 -1530 -13 -1533 -8
-4 -69 13 -292 83 -158 49 -333 104 -545 169 -80 24 -174 54 -210 65 -65 21
-509 158 -542 167 -11 3 -74 119 -170 310 l-152 304 -40 11 c-43 11 -543 157
-562 164 -8 2 -11 -9 -9 -33 2 -20 6 -102 10 -182 4 -80 8 -174 10 -210 7
-143 16 -319 20 -390 3 -41 7 -127 10 -190 2 -63 7 -162 11 -220 9 -150 12
-222 13 -246 1 -22 -1 -21 161 -69 25 -7 82 -25 127 -39 46 -14 118 -37 160
-50 43 -13 182 -57 308 -96 127 -40 244 -76 260 -80 17 -4 50 -15 75 -23 25
-9 133 -43 240 -76 107 -33 362 -111 565 -174 204 -64 501 -156 660 -205 160
-50 355 -111 435 -135 80 -25 242 -76 360 -112 118 -37 287 -89 375 -117 310
-96 611 -190 670 -208 170 -52 423 -130 935 -290 479 -149 478 -149 565 -154
130 -7 250 37 336 124 146 146 182 366 92 559 -36 76 -139 178 -223 219 -64
31 -145 57 -775 246 -176 53 -363 110 -415 126 -163 50 -664 202 -675 204 -11
2 -132 39 -275 84 l-85 27 -21 95 c-12 52 -32 138 -44 190 -12 52 -23 102 -25
110 -2 8 -15 65 -30 125 -15 61 -28 119 -31 130 -2 11 -33 146 -69 300 -36
154 -70 298 -75 320 -4 22 -11 49 -13 60 -3 11 -12 49 -20 85 -8 36 -27 117
-42 180 -15 63 -28 122 -30 130 -2 8 -27 114 -55 235 -29 121 -53 227 -55 235
-2 8 -22 94 -45 190 -23 96 -43 184 -46 195 -23 112 -27 125 -48 126 -12 0
-30 2 -41 4 -11 2 -47 7 -80 11 -33 3 -67 7 -75 9 -14 2 -67 9 -165 21 -98 12
-122 15 -160 20 -79 11 -91 13 -150 19 -32 4 -62 8 -66 11 -4 2 -11 -2 -17 -9z"/>
<path d="M3270 3270 c-88 -16 -165 -82 -190 -162 -48 -162 62 -320 225 -321
104 0 193 58 233 152 19 46 19 136 0 182 -44 104 -160 168 -268 149z"/>
<path d="M3827 3119 c-76 -17 -149 -87 -173 -165 -37 -122 30 -257 146 -299
157 -57 314 43 327 209 14 166 -135 291 -300 255z"/>
<path d="M870 1363 l0 -243 3128 0 3128 0 0 243 -1 242 -3127 0 -3128 1 0
-243z"/>
</g>
</svg>
